<?xml version="1.0" encoding="UTF-8"?>
<svg version="1.1" xmlns="http://www.w3.org/2000/svg" width="178" height="161">
<path d="M0 0 C58.74 0 117.48 0 178 0 C178 53.13 178 106.26 178 161 C119.26 161 60.52 161 0 161 C0 107.87 0 54.74 0 0 Z " fill="#D7D9D6" transform="translate(0,0)"/>
<path d="M0 0 C3.16402548 3.20611895 3.45760155 5.75156264 3.5 10.1875 C3.31031179 18.23569967 0.58641515 22.88303815 -4.4375 28.9375 C-7.22012511 31.17717387 -9.55869257 32.11966554 -13 33 C-12.40832031 33.37511719 -11.81664062 33.75023437 -11.20703125 34.13671875 C-0.44752714 41.10494572 -0.44752714 41.10494572 2 46 C3.33773242 60.27421294 3.33773242 60.27421294 0.75390625 65.5390625 C-1.05099691 67.43150138 -2.73663487 68.69357233 -5 70 C-5.721875 70.42539063 -6.44375 70.85078125 -7.1875 71.2890625 C-13.04302658 74.27782086 -18.24741928 75.19714232 -24.546875 73.1875 C-30.26205209 70.75263165 -33.48717977 68.05040683 -36.171875 62.42578125 C-37.48074396 58.59178303 -37.80754989 55.04145223 -38 51 C-36.1015625 50.44140625 -36.1015625 50.44140625 -34 50 C-32.375 50.9375 -32.375 50.9375 -31 53 C-30.68089026 54.34796357 -30.39190983 55.70323698 -30.125 57.0625 C-29.72194804 59.16727517 -29.72194804 59.16727517 -29 61 C-26.59867226 62.54488317 -26.59867226 62.54488317 -24 63 C-23.34 63.33 -22.68 63.66 -22 64 C-15.9163773 64.5964336 -12.94423897 63.22889075 -8 60 C-7.57833474 52.71663286 -7.57833474 52.71663286 -10 46 C-13.54668127 43.56008452 -16.61922124 43.91601753 -20.8125 44.125 C-26.98549162 44.20144572 -30.15606685 43.62742026 -35 40 C-36.69885008 38.94293773 -38.4079385 37.90221567 -40.125 36.875 C-40.93195313 36.37742188 -41.73890625 35.87984375 -42.5703125 35.3671875 C-44.98963693 34.00583131 -47.40232128 32.97066287 -50 32 C-50 31.34 -50 30.68 -50 30 C-48.25547182 29.01749885 -46.51086211 28.03514221 -44.76586914 27.0534668 C-43.29408083 26.22453605 -41.82321674 25.39396224 -40.35327148 24.56176758 C-35.79139357 21.98402014 -31.20056115 19.49401605 -26.50390625 17.16796875 C-24.53423782 15.88638711 -24.53423782 15.88638711 -24 12 C-27.96 11.67 -31.92 11.34 -36 11 C-36 4.21965318 -36 4.21965318 -33.625 1.625 C-32.325625 0.325625 -32.325625 0.325625 -31 -1 C-30.34 -1 -29.68 -1 -29 -1 C-29 -1.66 -29 -2.32 -29 -3 C-17.99927964 -5.26485419 -9.80785868 -6.61986909 0 0 Z " fill="#E3E2D7" transform="translate(156,41)"/>
<path d="M0 0 C1.5778125 0.495 1.5778125 0.495 3.1875 1 C13.66766255 3.57859887 24.52801684 1.75841396 35 0 C35.81928886 1.24556092 36.63015186 2.49666635 37.4375 3.75 C38.11619141 4.79414062 38.11619141 4.79414062 38.80859375 5.859375 C42.32065476 12.16956987 41.82780927 20.24411109 40.31640625 27.1015625 C37.34533494 36.64350937 33.00418398 44.41362453 25.66796875 51.19921875 C23.19423999 53.86991889 21.71085038 56.91759956 20.140625 60.1796875 C19 62 19 62 16 63 C15.83886719 62.39414063 15.67773438 61.78828125 15.51171875 61.1640625 C13.62063966 55.33846342 11.31431263 52.03725071 6.625 48.0625 C-1.10590884 41.41681232 -5.02208102 35.13210421 -5.9375 24.875 C-5.99995666 22.58408985 -6.02446581 20.29163076 -6 18 C-5.99871094 17.15050781 -5.99742188 16.30101563 -5.99609375 15.42578125 C-5.67178097 9.43122564 -3.19915212 4.99351051 0 0 Z " fill="#E57905" transform="translate(70,83)"/>
<path d="M0 0 C9.66887102 0.43949414 17.88297614 5.91198716 25.2421875 11.80859375 C27.71694299 13.48592803 30.05090329 13.85254516 33 14 C33 16.31 33 18.62 33 21 C32.28972656 21.10723389 31.57945313 21.21446777 30.84765625 21.32495117 C27.68826464 22.07389817 25.28979202 23.25360686 22.4375 24.80078125 C21.39335938 25.36603516 20.34921875 25.93128906 19.2734375 26.51367188 C18.19320312 27.10728516 17.11296875 27.70089844 16 28.3125 C14.91976562 28.89451172 13.83953125 29.47652344 12.7265625 30.07617188 C6.77643303 33.29090965 6.77643303 33.29090965 1.27734375 37.19995117 C-1 39 -1 39 -3 39 C-2.125 34.125 -2.125 34.125 -1 33 C-5.08178343 30.03143024 -7.97895286 29.28270755 -13 30 C-16.18328877 31.59717579 -16.18328877 31.59717579 -18 35 C-19.06453637 42.21468777 -19.06453637 42.21468777 -16.73046875 48.80859375 C-13.44758869 51.06881591 -9.90530941 51.23268349 -6 51 C-2.75345845 49.88519092 0.54091711 48.45908289 3 46 C3.2819396 43.71315662 3.44777005 41.42636727 3.62109375 39.12890625 C4 37 4 37 6 35 C10.55555556 35.55555556 10.55555556 35.55555556 12 37 C12.5934422 41.76256144 13.03351511 46.72463274 11.01171875 51.17578125 C6.75088296 56.58884306 0.37342754 60.09743022 -6.328125 61.48046875 C-12.47684287 61.8782005 -17.12695717 59.60756272 -22 56 C-26.54791818 51.86356013 -27.78681284 48.08301435 -28.203125 42.0625 C-28.21859375 41.051875 -28.2340625 40.04125 -28.25 39 C-28.27578125 37.989375 -28.3015625 36.97875 -28.328125 35.9375 C-27.84629389 31.62396435 -26.23693419 29.10711733 -23.02734375 26.234375 C-22.33769531 25.74453125 -21.64804687 25.2546875 -20.9375 24.75 C-20.24527344 24.24984375 -19.55304687 23.7496875 -18.83984375 23.234375 C-14.99496893 20.65479869 -11.53340037 20.30313019 -7 21 C-4.28657045 22.11022154 -1.76599419 23.3942481 0.80078125 24.80859375 C3.06793842 26.11922485 3.06793842 26.11922485 6 27 C8.41681849 25.81067863 10.64676278 24.58463694 12.9375 23.1875 C20.74560811 18.54155405 20.74560811 18.54155405 24 17 C23.39414063 16.78085938 22.78828125 16.56171875 22.1640625 16.3359375 C14.0279546 13.25673359 4.72566062 9.73289919 0 2 C0 1.34 0 0.68 0 0 Z " fill="#0B181D" transform="translate(44,54)"/>
<path d="M0 0 C2.5 0.1875 2.5 0.1875 5 1 C5.66 1.99 6.32 2.98 7 4 C7.825 4.804375 8.65 5.60875 9.5 6.4375 C11.65089502 8.64216739 12.85748083 10.19563477 14 13 C15.65 13 17.3 13 19 13 C19.99 10.69 20.98 8.38 22 6 C24.31 6 26.62 6 29 6 C29.33 4.35 29.66 2.7 30 1 C32.475 1.495 32.475 1.495 35 2 C35.495 4.475 35.495 4.475 36 7 C32.25 10 32.25 10 30 10 C30 9.34 30 8.68 30 8 C27.83358335 9.66545339 27.83358335 9.66545339 26 12 C25.84272529 14.90958218 26.50646455 16.41863196 28.3828125 18.62890625 C29.18332031 19.49322266 29.18332031 19.49322266 30 20.375 C33.09455383 23.82834269 34.17052413 26.22532433 34 31 C31.63217369 36.49335703 28.7991994 39.50058377 24 43 C23.38125 43.45375 22.7625 43.9075 22.125 44.375 C17.57495404 45.71324881 13.19286461 44.42943126 8.875 42.875 C5.06780569 40.39204719 2.15583878 38.06151196 0 34 C-0.96532173 29.3445477 -0.98451548 25.08803832 1.06640625 20.73828125 C2.375 18.8125 2.375 18.8125 5 16 C5.66 16 6.32 16 7 16 C6.34 13.36 5.68 10.72 5 8 C4.05125 8.20625 3.1025 8.4125 2.125 8.625 C1.09375 8.74875 0.0625 8.8725 -1 9 C-1.66 8.34 -2.32 7.68 -3 7 C-2.67028521 3.70285207 -2.3773161 2.3773161 0 0 Z " fill="#071720" transform="translate(70,19)"/>
<path d="M0 0 C3.25390625 1.87109375 3.25390625 1.87109375 6 4 C6.62648437 4.44601563 7.25296875 4.89203125 7.8984375 5.3515625 C10.54413367 7.63330047 11.86619159 9.06891645 12.375 12.609375 C12.375 15.07608588 12.19934938 17.54135762 12 20 C8.7 19.01 5.4 18.02 2 17 C2.804375 18.03125 3.60875 19.0625 4.4375 20.125 C6.77799296 23.37127696 7.70358711 25.94902383 8 30 C6.02 30 4.04 30 2 30 C2 30.66 2 31.32 2 32 C-4.36651308 35.00031076 -11.16000483 35.12034404 -18 34 C-21.82995765 31.36690411 -23.94888796 28.10222408 -26 24 C-26.48709958 18.21868698 -26.8279526 12.85461382 -24.4375 7.5 C-23.633125 6.675 -22.82875 5.85 -22 5 C-21.57203125 4.51789062 -21.1440625 4.03578125 -20.703125 3.5390625 C-15.13947337 -1.65176711 -7.10834634 -1.11187726 0 0 Z " fill="#FCE024" transform="translate(42,37)"/>
<path d="M0 0 C1.5778125 0.495 1.5778125 0.495 3.1875 1 C13.66766255 3.57859887 24.52801684 1.75841396 35 0 C37.88655013 3.87622446 40.35007264 7.37297182 40.625 12.3125 C40 16 40 16 38.0625 17.875 C30.78521615 20.54828794 23.78027786 21.33380827 16.0625 21.25 C15.18803223 21.24540771 14.31356445 21.24081543 13.41259766 21.23608398 C6.82057139 21.14331642 0.00551154 21.00275577 -6 18 C-5.65532373 10.76179827 -3.89785009 6.08409811 0 0 Z " fill="#08151B" transform="translate(70,83)"/>
<path d="M0 0 C5.49543974 2.43009354 11.27423948 6.54847895 14 12 C15.33773242 26.27421294 15.33773242 26.27421294 12.75390625 31.5390625 C10.94900309 33.43150138 9.26336513 34.69357233 7 36 C6.278125 36.42539063 5.55625 36.85078125 4.8125 37.2890625 C-1.04302658 40.27782086 -6.24741928 41.19714232 -12.546875 39.1875 C-18.26205209 36.75263165 -21.48717977 34.05040683 -24.171875 28.42578125 C-25.48074396 24.59178303 -25.80754989 21.04145223 -26 17 C-24.1015625 16.44140625 -24.1015625 16.44140625 -22 16 C-20.375 16.9375 -20.375 16.9375 -19 19 C-18.68089026 20.34796357 -18.39190983 21.70323698 -18.125 23.0625 C-17.72194804 25.16727517 -17.72194804 25.16727517 -17 27 C-14.59867226 28.54488317 -14.59867226 28.54488317 -12 29 C-11.34 29.33 -10.68 29.66 -10 30 C-3.9163773 30.5964336 -0.94423897 29.22889075 4 26 C4.42166526 18.71663286 4.42166526 18.71663286 2 12 C-1.57926066 9.53390653 -4.8861397 9.82688256 -9.125 9.9375 C-15.80555556 10.09722222 -15.80555556 10.09722222 -18 9 C-17.9375 7.25 -17.9375 7.25 -17 5 C-11.68259103 1.165587 -6.5786581 -1.02899925 0 0 Z " fill="#07151D" transform="translate(144,75)"/>
<path d="M0 0 C3.16402548 3.20611895 3.45760155 5.75156264 3.5 10.1875 C3.31119173 18.19836521 0.61249544 22.83750552 -4.375 28.875 C-8.74331036 32.41125125 -12.20490684 34.02895312 -17.875 33.9375 C-22.57255591 33.12694133 -26.75887982 31.11074268 -31 29 C-31.3669579 22.51707705 -31.3669579 22.51707705 -29.625 20.0625 C-28 19 -28 19 -26 19 C-26 19.99 -26 20.98 -26 22 C-24.02 22.66 -22.04 23.32 -20 24 C-20 24.66 -20 25.32 -20 26 C-12.99166975 26.38932267 -12.99166975 26.38932267 -7 23 C-4.41129643 18.7548882 -4.58641919 14.83372573 -5 10 C-5.57218132 7.05570224 -5.57218132 7.05570224 -7 5 C-10.16705218 3.87044188 -13.22444496 3.86591686 -16.5625 3.875 C-17.51253906 3.87242188 -18.46257812 3.86984375 -19.44140625 3.8671875 C-22.1212438 3.89229006 -22.1212438 3.89229006 -25 5 C-25.4125 5.845625 -25.825 6.69125 -26.25 7.5625 C-26.8275 8.366875 -27.405 9.17125 -28 10 C-31.6875 10.3125 -31.6875 10.3125 -35 10 C-34.49890042 5.61537866 -33.01704885 3.1999003 -30 0 C-29.34 0 -28.68 0 -28 0 C-28 -0.66 -28 -1.32 -28 -2 C-18.64776157 -7.39552217 -8.6013973 -5.80556123 0 0 Z " fill="#FAB60C" transform="translate(156,41)"/>
<path d="M0 0 C-1.31233505 8.62822587 -7.51910217 14.70526585 -13.2421875 20.91796875 C-15.34016746 23.40290946 -16.61042194 26.07457251 -18 29 C-18.99 29.33 -19.98 29.66 -21 30 C-21.24169922 29.09121094 -21.24169922 29.09121094 -21.48828125 28.1640625 C-23.85008059 20.88837734 -27.65995521 17.22028163 -33.42578125 12.33203125 C-36.62994941 9.42931746 -38.27943967 6.93270933 -40 3 C-40 2.34 -40 1.68 -40 1 C-36.64874851 1.61093611 -33.53229483 2.46085119 -30.3125 3.5625 C-20.61614367 6.43708351 -13.94738285 5.02483234 -4.6875 1.09375 C-2 0 -2 0 0 0 Z " fill="#040D14" transform="translate(107,116)"/>
<path d="M0 0 C2.80437827 1.10919439 5.37795092 2.51867743 8 4 C9.06927734 4.47953125 9.06927734 4.47953125 10.16015625 4.96875 C12.76210965 6.42716974 13.12719825 8.2361278 14 11 C11.69 11.33 9.38 11.66 7 12 C7.020625 13.27875 7.04125 14.5575 7.0625 15.875 C7.125 19.75 7.125 19.75 6 22 C-0.08096612 23.52024153 -6.55073089 24.44956743 -12.0625 21.1875 C-14.89962487 16.51997199 -14.88135589 12.32819698 -14 7 C-10.48419048 1.05949425 -6.80667822 -0.66950933 0 0 Z " fill="#E2EBEC" transform="translate(36,43)"/>
<path d="M0 0 C0.046875 2.1796875 0.046875 2.1796875 -1 5 C-3.70994336 7.08806619 -6.70835685 8.57575185 -9.75 10.125 C-11.37003765 10.98130562 -12.98983579 11.83806455 -14.609375 12.6953125 C-15.37314453 13.09137695 -16.13691406 13.48744141 -16.92382812 13.89550781 C-18.63363467 14.80509916 -20.30057673 15.79479689 -21.953125 16.8046875 C-24 18 -24 18 -26 18 C-26 18.66 -26 19.32 -26 20 C-25.46632813 20.13535156 -24.93265625 20.27070312 -24.3828125 20.41015625 C-16.91007704 22.5692338 -10.51264136 26.48735864 -5 32 C-3.989375 32.28875 -2.97875 32.5775 -1.9375 32.875 C1 34 1 34 2 35.9375 C2 38 2 38 0 41 C-3.125 41.1875 -3.125 41.1875 -6 41 C-6.22888916 40.41049561 -6.45777832 39.82099121 -6.69360352 39.21362305 C-8.35519027 36.39814798 -10.1385083 35.31451403 -12.90234375 33.58203125 C-13.87494141 32.96779297 -14.84753906 32.35355469 -15.84960938 31.72070312 C-16.86861328 31.09099609 -17.88761719 30.46128906 -18.9375 29.8125 C-20.46020508 28.85053711 -20.46020508 28.85053711 -22.01367188 27.86914062 C-27.2845569 24.47732266 -27.2845569 24.47732266 -33 22 C-34.62323754 18.24092359 -35.23994929 15.07913787 -35 11 C-33.88625 11.495 -33.88625 11.495 -32.75 12 C-29.86116688 13.22782871 -29.86116688 13.22782871 -26 13 C-23.42222449 11.42038275 -23.42222449 11.42038275 -20.8125 9.3125 C-7.1805126 -0.92057854 -7.1805126 -0.92057854 0 0 Z " fill="#060C14" transform="translate(132,53)"/>
<path d="M0 0 C9.66887102 0.43949414 17.88297614 5.91198716 25.2421875 11.80859375 C27.71694299 13.48592803 30.05090329 13.85254516 33 14 C33 16.31 33 18.62 33 21 C32.28972656 21.10723389 31.57945313 21.21446777 30.84765625 21.32495117 C27.68826464 22.07389817 25.28979202 23.25360686 22.4375 24.80078125 C20.87128906 25.64866211 20.87128906 25.64866211 19.2734375 26.51367188 C18.19320312 27.10728516 17.11296875 27.70089844 16 28.3125 C14.37964844 29.18551758 14.37964844 29.18551758 12.7265625 30.07617188 C6.77643303 33.29090965 6.77643303 33.29090965 1.27734375 37.19995117 C-1 39 -1 39 -3 39 C-2.125 34.125 -2.125 34.125 -1 33 C-2.65 31.68 -4.3 30.36 -6 29 C-5.34 29 -4.68 29 -4 29 C-3.67 27.02 -3.34 25.04 -3 23 C-1.96875 23.70125 -0.9375 24.4025 0.125 25.125 C2.84396093 26.64457896 3.63317513 27.04890998 6.8125 26.625 C10.53120229 24.72919099 14.09065597 22.64445111 17.6328125 20.4375 C19.71580869 19.17257822 21.80392378 18.05249736 24 17 C23.39414063 16.78085938 22.78828125 16.56171875 22.1640625 16.3359375 C14.0279546 13.25673359 4.72566062 9.73289919 0 2 C0 1.34 0 0.68 0 0 Z " fill="#091E20" transform="translate(44,54)"/>
<path d="M0 0 C4.03837057 0.26481119 6.35406471 1.22555008 9.8125 3.25 C8.8225 4.735 8.8225 4.735 7.8125 6.25 C7.42750109 7.90549531 7.08456865 9.5722433 6.8125 11.25 C7.781875 11.229375 8.75125 11.20875 9.75 11.1875 C12.8125 11.25 12.8125 11.25 13.8125 12.25 C14.1875 14.5625 14.1875 14.5625 13.8125 17.25 C10.30741975 20.75508025 6.69125396 23.20348512 1.63671875 23.28515625 C-2.10164379 23.0343005 -4.36320726 22.86893758 -7.4296875 20.56640625 C-10.23000881 16.87620506 -9.78749927 13.593725 -9.65625 9.109375 C-9.18265991 6.22047543 -8.79442979 5.08315735 -6.75 3.0625 C-5.904375 2.464375 -5.05875 1.86625 -4.1875 1.25 C-3.1875 0.25 -3.1875 0.25 0 0 Z " fill="#DADFE2" transform="translate(34.1875,82.75)"/>
<path d="M0 0 C3.83893191 1.08277567 7.07785787 2.55901239 10.5 4.5625 C14.00663578 6.57985392 16.90551937 7.68503995 21 8 C17.83601838 11.55551112 13.88364238 13.36962193 9.72265625 15.5625 C7.65930752 16.65190076 5.63230222 17.81048758 3.625 19 C1 20 1 20 -1.375 19.4375 C-2.85919106 18.62472871 -4.33996959 17.80541697 -5.80859375 16.96484375 C-12.40089931 13.37955476 -17.61823972 13.15455993 -25 15 C-24.67 14.01 -24.34 13.02 -24 12 C-24.639375 11.773125 -25.27875 11.54625 -25.9375 11.3125 C-28 10 -28 10 -28.75 7.375 C-28.8325 6.59125 -28.915 5.8075 -29 5 C-28.49339844 5.48984375 -27.98679687 5.9796875 -27.46484375 6.484375 C-24.06524103 8.57478048 -21.52386666 8.32852065 -17.5625 8.25 C-16.26441406 8.23453125 -14.96632813 8.2190625 -13.62890625 8.203125 C-10.62619092 8.03505051 -7.91618194 7.69673711 -5 7 C-5 6.34 -5 5.68 -5 5 C-3.35 4.67 -1.7 4.34 0 4 C0 2.68 0 1.36 0 0 Z " fill="#DED9D2" transform="translate(49,62)"/>
<path d="M0 0 C2.56314499 -0.08132187 5.12368418 -0.14064175 7.6875 -0.1875 C8.40873047 -0.21263672 9.12996094 -0.23777344 9.87304688 -0.26367188 C14.46775926 -0.32661314 17.36095015 0.13976195 21 3 C23.22681144 6.60531376 23.66504718 10.65474899 23.57421875 14.83984375 C22.82801695 17.64698386 21.82076026 18.4444645 19.4375 20.0625 C15.47141331 22.07347353 12.46365228 22.73041583 8 22 C5.19433053 20.94717393 3.47717359 19.83310846 1 18 C0 15.375 0 15.375 0 13 C0.33 12.34 0.66 11.68 1 11 C2.98 11 4.96 11 7 11 C7 8.69 7 6.38 7 4 C4.69 3.01 2.38 2.02 0 1 C0 0.67 0 0.34 0 0 Z " fill="#D8DFE1" transform="translate(126,84)"/>
<path d="M0 0 C5.06339788 0.24424554 9.40931002 2.4819312 13.375 5.5625 C13.705 6.5525 14.035 7.5425 14.375 8.5625 C15.035 8.5625 15.695 8.5625 16.375 8.5625 C16.375 9.2225 16.375 9.8825 16.375 10.5625 C17.365 10.5625 18.355 10.5625 19.375 10.5625 C19.705 11.8825 20.035 13.2025 20.375 14.5625 C10.68830678 17.22594429 0.27626667 19.50676155 -9.625 16.5625 C-9.19948104 14.64313787 -8.75908062 12.72707126 -8.3125 10.8125 C-7.94705078 9.21148437 -7.94705078 9.21148437 -7.57421875 7.578125 C-6.05757852 2.75982764 -5.12237606 0.79485146 0 0 Z " fill="#F5C213" transform="translate(83.625,68.4375)"/>
<path d="M0 0 C8.25 1.32 16.5 2.64 25 4 C25.33 5.65 25.66 7.3 26 9 C24.3125 11.0625 24.3125 11.0625 22 13 C19.11824515 15.72007167 19.11824515 15.72007167 17 19 C4.42620482 18.05572289 4.42620482 18.05572289 1 16 C-1.4954032 10.39404769 -0.87317554 6.11222876 0 0 Z " fill="#FEC604" transform="translate(65,101)"/>
<path d="M0 0 C0.66 0 1.32 0 2 0 C3.44207941 2.88415883 3.09394887 5.41721528 3.0625 8.625 C3.05347656 9.81351563 3.04445312 11.00203125 3.03515625 12.2265625 C3.02355469 13.14179687 3.01195312 14.05703125 3 15 C3.99 15 4.98 15 6 15 C4.17233959 20.81528314 0.93843947 23.90277011 -4.3125 26.875 C-12.10121898 29.25121935 -18.04344445 26.46217464 -25 23 C-25.3669579 16.51707705 -25.3669579 16.51707705 -23.625 14.0625 C-22 13 -22 13 -20 13 C-20 13.99 -20 14.98 -20 16 C-18.02 16.66 -16.04 17.32 -14 18 C-14 18.66 -14 19.32 -14 20 C-6.99166975 20.38932267 -6.99166975 20.38932267 -1 17 C0.79328123 14.0757644 1.25173008 11.91003352 1.1875 8.5 C1.18105469 7.7471875 1.17460937 6.994375 1.16796875 6.21875 C1.00303563 4.04009857 0.59600906 2.09795189 0 0 Z " fill="#F2AD15" transform="translate(150,47)"/>
<path d="M0 0 C0.09796875 1.05960938 0.1959375 2.11921875 0.296875 3.2109375 C0.44694273 4.59906397 0.59803792 5.98707963 0.75 7.375 C0.811875 8.07367188 0.87375 8.77234375 0.9375 9.4921875 C1.16118253 11.78363782 1.16118253 11.78363782 2 15 C3.93880108 16.55719538 3.93880108 16.55719538 6 17 C4.68 18.65 3.36 20.3 2 22 C1.38253906 21.54109375 0.76507813 21.0821875 0.12890625 20.609375 C-5.35835568 16.6338245 -10.68163101 13.4571435 -17 11 C-17 10.34 -17 9.68 -17 9 C-14.35559624 7.49743011 -11.70958148 5.9978388 -9.0625 4.5 C-8.30775391 4.07074219 -7.55300781 3.64148438 -6.77539062 3.19921875 C-6.05673828 2.79316406 -5.33808594 2.38710937 -4.59765625 1.96875 C-3.93258057 1.59169922 -3.26750488 1.21464844 -2.58227539 0.82617188 C-1 0 -1 0 0 0 Z " fill="#D8DACD" transform="translate(123,62)"/>
<path d="M0 0 C0.04296875 2.1796875 0.04296875 2.1796875 -1 5 C-3.68713432 7.09042898 -6.66422118 8.57666456 -9.6875 10.125 C-10.49123047 10.55425781 -11.29496094 10.98351563 -12.12304688 11.42578125 C-16.37965667 13.68808409 -20.67888595 15.86387577 -25 18 C-25.33 16.35 -25.66 14.7 -26 13 C-7.47047629 -0.95775337 -7.47047629 -0.95775337 0 0 Z " fill="#071A24" transform="translate(132,53)"/>
<path d="M0 0 C7.5681432 -0.3089038 13.9135655 -0.13060554 19.9375 5 C22.86328352 8.08905269 23.4375 10.20533229 23.4375 14.4375 C23.32622751 15.96125189 23.19212854 17.48431929 23 19 C20.5625 18.375 20.5625 18.375 18 17 C17.1875 13.875 17.1875 13.875 17 11 C16.4225 10.9175 15.845 10.835 15.25 10.75 C13 10 13 10 11.125 8.0625 C8.58999009 5.60204921 6.37173564 4.91956427 3 4 C3 3.34 3 2.68 3 2 C2.01 2 1.02 2 0 2 C0 1.34 0 0.68 0 0 Z " fill="#FAD215" transform="translate(31,38)"/>
<path d="M0 0 C0.66 0.33 1.32 0.66 2 1 C0.68 1.33 -0.64 1.66 -2 2 C-2 2.66 -2 3.32 -2 4 C-2.78375 4.763125 -3.5675 5.52625 -4.375 6.3125 C-6.90052521 8.89815676 -7.93407386 10.60841682 -9 14 C-6.69 14 -4.38 14 -2 14 C-1.7525 13.21625 -1.505 12.4325 -1.25 11.625 C0.22051341 8.53692183 0.87519043 8.17652588 4 7 C6.62109375 6.734375 6.62109375 6.734375 9.4375 6.75 C10.36433594 6.74484375 11.29117188 6.7396875 12.24609375 6.734375 C15.1986855 7.01916399 17.35033716 7.67980086 20 9 C22.65057523 13.16518965 22.69039099 18.21777947 22 23 C20.38970649 26.16307654 18.97868759 28.19607805 16.25 30.4375 C12.69498706 31.32625323 9.59859273 30.59976545 6 30 C6 29.67 6 29.34 6 29 C8.97 29 11.94 29 15 29 C15 28.34 15 27.68 15 27 C15.99 26.67 16.98 26.34 18 26 C18.71033431 20.47032059 19.30267176 15.50016964 18 10 C13.25129459 8.48041427 8.72987172 8.24788186 4.125 10.25 C1.58081862 11.99174027 1.58081862 11.99174027 1 16 C-2.63 15.67 -6.26 15.34 -10 15 C-10.34934248 12.06552319 -10.51495218 9.85632498 -8.95703125 7.265625 C-7.625 5.625 -7.625 5.625 -5 3 C-4.34 3 -3.68 3 -3 3 C-3 2.34 -3 1.68 -3 1 C-2.01 0.67 -1.02 0.34 0 0 Z " fill="#ECDCA4" transform="translate(130,37)"/>
<path d="M0 0 C6.12784305 -0.51065359 9.7185595 1.01625836 15 4 C16.06927734 4.47953125 16.06927734 4.47953125 17.16015625 4.96875 C19.76210965 6.42716974 20.12719825 8.2361278 21 11 C18.69 11.33 16.38 11.66 14 12 C14.020625 13.27875 14.04125 14.5575 14.0625 15.875 C14.125 19.75 14.125 19.75 13 22 C6.91903388 23.52024153 0.44926911 24.44956743 -5.0625 21.1875 C-7.80815217 16.67045934 -8.00027309 12.17641323 -7 7 C-6.01 6.34 -5.02 5.68 -4 5 C-4.33 5.99 -4.66 6.98 -5 8 C-5.28455916 10.7635072 -5.17817991 13.19366639 -5 16 C-4.01 16.66 -3.02 17.32 -2 18 C-2 18.99 -2 19.98 -2 21 C-0.22880197 20.85866501 1.54195287 20.71176792 3.3125 20.5625 C4.29863281 20.48128906 5.28476562 20.40007813 6.30078125 20.31640625 C9.09375599 20.08187441 9.09375599 20.08187441 12 19 C11.95875 17.72125 11.9175 16.4425 11.875 15.125 C11.8046875 12.9453125 11.8046875 12.9453125 12 11 C12.66 10.34 13.32 9.68 14 9 C14 8.01 14 7.02 14 6 C13.01 5.67 12.02 5.34 11 5 C11 4.34 11 3.68 11 3 C5.555 2.01 5.555 2.01 0 1 C0 0.67 0 0.34 0 0 Z " fill="#F2EAAE" transform="translate(29,43)"/>
<path d="M0 0 C0.268125 0.804375 0.53625 1.60875 0.8125 2.4375 C1.204375 3.283125 1.59625 4.12875 2 5 C2.99 5.33 3.98 5.66 5 6 C5 6.66 5 7.32 5 8 C7.31 8.33 9.62 8.66 12 9 C12.33 9.99 12.66 10.98 13 12 C10.32902406 13.81626364 8.96926821 13.99826046 5.6875 13.8125 C1.76400352 12.94800077 -1.37557738 11.7012596 -5 10 C-5.3669579 3.51707705 -5.3669579 3.51707705 -3.625 1.0625 C-2 0 -2 0 0 0 Z " fill="#FAAD07" transform="translate(130,60)"/>
<path d="M0 0 C12.66970387 -0.18451025 12.66970387 -0.18451025 18 1 C14.21544729 5.25287529 8.97008815 7.39425378 4 10 C3.34515625 10.35964844 2.6903125 10.71929687 2.015625 11.08984375 C0.4375 11.9375 0.4375 11.9375 -2 13 C-2.66 12.67 -3.32 12.34 -4 12 C-3.67 10.68 -3.34 9.36 -3 8 C-2.01 8 -1.02 8 0 8 C0.66 5.69 1.32 3.38 2 1 C1.34 0.67 0.68 0.34 0 0 Z " fill="#EFEEE7" transform="translate(52,69)"/>
<path d="M0 0 C2.63886669 3.18483911 5.14494105 6.2898821 7 10 C6.67 10.99 6.34 11.98 6 13 C4.35 13 2.7 13 1 13 C1 13.66 1 14.32 1 15 C-3.49656104 17.24828052 -7.07872966 17.16682272 -12 17 C-11.34 16.01 -10.68 15.02 -10 14 C-11.65 13.67 -13.3 13.34 -15 13 C-15 12.67 -15 12.34 -15 12 C-10.38 11.67 -5.76 11.34 -1 11 C-1.020625 9.370625 -1.04125 7.74125 -1.0625 6.0625 C-1.08386068 4.37500659 -1.07205511 2.68608966 -1 1 C-0.67 0.67 -0.34 0.34 0 0 Z " fill="#F5D72D" transform="translate(43,54)"/>
<path d="M0 0 C0.66 0.33 1.32 0.66 2 1 C2.73928391 5.73141704 0.78093193 8.3094854 -1.80859375 12.03515625 C-3.10311823 13.94843712 -3.10311823 13.94843712 -3.53515625 16.18359375 C-3.68855469 16.78300781 -3.84195313 17.38242187 -4 18 C-4.66 18.33 -5.32 18.66 -6 19 C-6.46523063 20.89533342 -6.46523063 20.89533342 -6.625 23.0625 C-6.74875 24.361875 -6.8725 25.66125 -7 27 C-7.33 26.34 -7.66 25.68 -8 25 C-9.32 25 -10.64 25 -12 25 C-12 24.34 -12 23.68 -12 23 C-13.98 23 -15.96 23 -18 23 C-18 22.01 -18 21.02 -18 20 C-18.99 19.67 -19.98 19.34 -21 19 C-20.41992188 18.90203125 -19.83984375 18.8040625 -19.2421875 18.703125 C-12.78009557 17.46615691 -8.48255064 15.48255064 -3.75 10.75 C-1.49226695 7.20213379 -0.83636885 4.11214685 0 0 Z " fill="#E4EAE8" transform="translate(104,45)"/>
<path d="M0 0 C1.65 0.33 3.3 0.66 5 1 C5.33 2.65 5.66 4.3 6 6 C2.25 9 2.25 9 0 9 C0 8.34 0 7.68 0 7 C-2.66735273 9.48952921 -4.55746343 11.63408134 -6 15 C-7.65 15 -9.3 15 -11 15 C-10.69201674 13.51988629 -10.378482 12.04092675 -10.0625 10.5625 C-9.80146484 9.32693359 -9.80146484 9.32693359 -9.53515625 8.06640625 C-9 6 -9 6 -8 5 C-5.66702567 4.95907063 -3.33294775 4.95758277 -1 5 C-0.67 3.35 -0.34 1.7 0 0 Z " fill="#060B16" transform="translate(100,20)"/>
<path d="M0 0 C2.97 1.65 5.94 3.3 9 5 C9 5.66 9 6.32 9 7 C10.98 7 12.96 7 15 7 C12.17753826 9.1458442 9.310676 11.19929134 6.375 13.1875 C5.59898438 13.71730469 4.82296875 14.24710938 4.0234375 14.79296875 C2 16 2 16 0 16 C0.875 11.125 0.875 11.125 2 10 C0.35 8.68 -1.3 7.36 -3 6 C-2.34 6 -1.68 6 -1 6 C-0.67 4.02 -0.34 2.04 0 0 Z " fill="#0D1615" transform="translate(41,77)"/>
<path d="M0 0 C0 0.66 0 1.32 0 2 C1.3303125 2.12375 1.3303125 2.12375 2.6875 2.25 C6.44444156 3.10062828 8.1237137 4.51240104 11 7 C11.99 7.33 12.98 7.66 14 8 C14.495 10.475 14.495 10.475 15 13 C14.55269531 12.60167969 14.10539062 12.20335937 13.64453125 11.79296875 C13.03996094 11.26316406 12.43539062 10.73335937 11.8125 10.1875 C11.22082031 9.66542969 10.62914062 9.14335938 10.01953125 8.60546875 C4.05866215 3.86675076 -0.80208222 3.24286476 -8.3125 3.51171875 C-13.44940744 4.19192365 -16.69581411 6.03133595 -20 10 C-22.24757729 13.45082574 -22.38138497 16.68974948 -22.625 20.75 C-22.69976563 21.92046875 -22.77453125 23.0909375 -22.8515625 24.296875 C-22.90054687 25.18890625 -22.94953125 26.0809375 -23 27 C-23.33 27 -23.66 27 -24 27 C-24.99398921 20.44504412 -25.21212892 15.30456743 -23 9 C-21.5 7 -21.5 7 -20 6 C-19.34 6 -18.68 6 -18 6 C-18 5.34 -18 4.68 -18 4 C-12.40185694 0.26790462 -6.54467462 -0.27269478 0 0 Z " fill="#EDE8C8" transform="translate(39,34)"/>
<path d="M0 0 C0.33 1.65 0.66 3.3 1 5 C0.34 5 -0.32 5 -1 5 C-1 4.01 -1 3.02 -1 2 C-2.32 2.33 -3.64 2.66 -5 3 C-5 5.97 -5 8.94 -5 12 C-1.04 13.32 2.92 14.64 7 16 C1.63291139 20.02531646 1.63291139 20.02531646 -2 21 C-4.75 20.4375 -4.75 20.4375 -7 19 C-8.03468191 15.38178718 -8.10762184 11.93261247 -8.0625 8.1875 C-8.05347656 7.21167969 -8.04445313 6.23585938 -8.03515625 5.23046875 C-8.02355469 4.49441406 -8.01195313 3.75835937 -8 3 C-2.25 0 -2.25 0 0 0 Z " fill="#ECDA94" transform="translate(131,58)"/>
<path d="M0 0 C1.05960938 0.00676758 1.05960938 0.00676758 2.140625 0.01367188 C3.88545275 0.02546125 5.630237 0.04339676 7.375 0.0625 C7.705 0.7225 8.035 1.3825 8.375 2.0625 C4.415 1.7325 0.455 1.4025 -3.625 1.0625 C-3.625 1.7225 -3.625 2.3825 -3.625 3.0625 C-2.635 3.0625 -1.645 3.0625 -0.625 3.0625 C-0.625 3.7225 -0.625 4.3825 -0.625 5.0625 C0.303125 5.165625 1.23125 5.26875 2.1875 5.375 C5.40754358 6.0695192 6.40079865 6.53990939 8.375 9.0625 C7.364375 8.7325 6.35375 8.4025 5.3125 8.0625 C1.52620503 7.01668869 -1.67808271 6.56016507 -5.625 7.0625 C-7.94573397 8.52957191 -9.64081561 10.12671035 -11.625 12.0625 C-11.295 9.7525 -10.965 7.4425 -10.625 5.0625 C-11.945 5.3925 -13.265 5.7225 -14.625 6.0625 C-9.47726374 0.779297 -7.23470749 -0.0867631 0 0 Z " fill="#F5DB42" transform="translate(34.625,36.9375)"/>
<path d="M0 0 C-0.32987639 2.47407292 -0.57972087 3.6637767 -2.5625 5.25 C-6.10914618 6.34127575 -9.29528399 6.12349053 -13 6 C-13 6.66 -13 7.32 -13 8 C-27.46173037 8.54156272 -27.46173037 8.54156272 -34 5 C-35.99263591 4.31163487 -37.99041337 3.63718601 -40 3 C-40 2.34 -40 1.68 -40 1 C-36.64874851 1.61093611 -33.53229483 2.46085119 -30.3125 3.5625 C-20.61614367 6.43708351 -13.94738285 5.02483234 -4.6875 1.09375 C-2 0 -2 0 0 0 Z " fill="#130603" transform="translate(107,116)"/>
<path d="M0 0 C8.4 0.98823529 8.4 0.98823529 12 3 C12.625 4.875 12.625 4.875 13 7 C14.48800372 9.2072358 14.48800372 9.2072358 16 11 C16.33 10.34 16.66 9.68 17 9 C17.66 9.66 18.32 10.32 19 11 C18.67 11.99 18.34 12.98 18 14 C11.0871649 11.54705851 3.97872386 8.40055577 0 2 C0 1.34 0 0.68 0 0 Z " fill="#19223E" transform="translate(44,54)"/>
<path d="M0 0 C0 1.65 0 3.3 0 5 C0.70125 5.268125 1.4025 5.53625 2.125 5.8125 C5 7 5 7 8.1875 8.6875 C9.115625 9.120625 10.04375 9.55375 11 10 C11.66 9.67 12.32 9.34 13 9 C13.66 9.66 14.32 10.32 15 11 C13.68 12.65 12.36 14.3 11 16 C10.38253906 15.54109375 9.76507813 15.0821875 9.12890625 14.609375 C3.64164432 10.6338245 -1.68163101 7.4571435 -8 5 C-8 4.34 -8 3.68 -8 3 C-2.25 0 -2.25 0 0 0 Z " fill="#D1D8D7" transform="translate(114,68)"/>
<path d="M0 0 C0.33 0 0.66 0 1 0 C1.04898437 0.66386719 1.09796875 1.32773437 1.1484375 2.01171875 C1.48627276 8.8394291 1.48627276 8.8394291 4 15 C6.97980236 15.74664647 6.97980236 15.74664647 10 16 C10.66 16.66 11.32 17.32 12 18 C14.65537372 18.56520003 17.29144713 18.73788198 20 19 C17.24664508 21.66991992 15.40004194 22.91110179 11.625 23.75 C6.30156814 22.64860031 4.0625833 19.3083799 1 15 C-0.44207941 12.11584117 -0.09394887 9.58278472 -0.0625 6.375 C-0.05347656 5.18648437 -0.04445313 3.99796875 -0.03515625 2.7734375 C-0.02355469 1.85820313 -0.01195312 0.94296875 0 0 Z " fill="#F9D013" transform="translate(16,48)"/>
<path d="M0 0 C0.99 0 1.98 0 3 0 C3.75 1.75 3.75 1.75 4 4 C2.3125 6 2.3125 6 0 8 C-2.88175485 10.72007167 -2.88175485 10.72007167 -5 14 C-6.62580966 13.88601335 -8.25067157 13.75844341 -9.875 13.625 C-10.77992187 13.55539063 -11.68484375 13.48578125 -12.6171875 13.4140625 C-15 13 -15 13 -17 11 C-15.9275 10.896875 -14.855 10.79375 -13.75 10.6875 C-10.04454099 10.00816585 -8.80155724 9.30127916 -6 7 C-5.01 7 -4.02 7 -3 7 C-3 5.68 -3 4.36 -3 3 C-2.34 3 -1.68 3 -1 3 C-0.67 2.01 -0.34 1.02 0 0 Z " fill="#F8A505" transform="translate(87,106)"/>
<path d="M0 0 C8.25 1.32 16.5 2.64 25 4 C25 4.33 25 4.66 25 5 C17.41 5 9.82 5 2 5 C1.98487055 13.40133391 1.98487055 13.40133391 5 16 C3.68 16 2.36 16 1 16 C0.62963917 14.65017251 0.27964576 13.29475372 -0.0625 11.9375 C-0.35833984 10.80634766 -0.35833984 10.80634766 -0.66015625 9.65234375 C-1 7 -1 7 0 0 Z " fill="#F4C72E" transform="translate(65,101)"/>
<path d="M0 0 C4.8274799 1.41292095 8.7162359 3.42974154 13 6 C13 6.33 13 6.66 13 7 C7.22240116 7.12036664 1.72040011 6.8320582 -4 6 C-4 6.66 -4 7.32 -4 8 C-7.04681061 10.03120707 -7.60118324 10.24659875 -11.01171875 10.1953125 C-11.76904297 10.18886719 -12.52636719 10.18242188 -13.30664062 10.17578125 C-14.09232422 10.15902344 -14.87800781 10.14226562 -15.6875 10.125 C-16.48478516 10.11597656 -17.28207031 10.10695313 -18.10351562 10.09765625 C-20.069139 10.07411585 -22.03460775 10.03824547 -24 10 C-24 9.67 -24 9.34 -24 9 C-23.04738281 8.93941406 -22.09476563 8.87882812 -21.11328125 8.81640625 C-19.23189453 8.69072266 -19.23189453 8.69072266 -17.3125 8.5625 C-16.07113281 8.48128906 -14.82976563 8.40007812 -13.55078125 8.31640625 C-10.61819663 8.05508683 -7.86558383 7.65201621 -5 7 C-5 6.34 -5 5.68 -5 5 C-3.35 4.67 -1.7 4.34 0 4 C0 2.68 0 1.36 0 0 Z " fill="#E2BC7A" transform="translate(49,62)"/>
<path d="M0 0 C0.33 0 0.66 0 1 0 C1.36801906 7.93285519 0.77476512 14.5345605 -2 22 C-5.96 22.495 -5.96 22.495 -10 23 C-10 22.34 -10 21.68 -10 21 C-6.535 20.505 -6.535 20.505 -3 20 C-2.34 15.71 -1.68 11.42 -1 7 C-2.98 7.99 -2.98 7.99 -5 9 C-10.17810901 9.99796283 -15.19147972 10.12489548 -20.4375 10.0625 C-21.16904297 10.05798828 -21.90058594 10.05347656 -22.65429688 10.04882812 C-24.43623419 10.03718148 -26.21812863 10.01925191 -28 10 C-28 9.67 -28 9.34 -28 9 C-27.11699219 8.96261719 -26.23398438 8.92523438 -25.32421875 8.88671875 C-17.00676725 8.43109036 -8.57189547 7.78594774 -1 4 C-0.34786708 1.97536745 -0.34786708 1.97536745 0 0 Z " fill="#BA762A" transform="translate(110,95)"/>
<path d="M0 0 C2.5 0.1875 2.5 0.1875 5 1 C5.66 1.99 6.32 2.98 7 4 C8.31387169 5.35251497 9.64426252 6.68945377 11 8 C9.02 8.99 9.02 8.99 7 10 C6.01 9.34 5.02 8.68 4 8 C2.33178677 8.32550502 0.66500443 8.65846063 -1 9 C-1.66 8.34 -2.32 7.68 -3 7 C-2.67028521 3.70285207 -2.3773161 2.3773161 0 0 Z " fill="#020814" transform="translate(70,19)"/>
<path d="M0 0 C0 2.25 0 2.25 -1 5 C-5.70609959 8.5927053 -10.21894717 9.4817544 -16 9 C-16 8.01 -16 7.02 -16 6 C-13.9021477 4.79994469 -11.7979751 3.61497017 -9.6875 2.4375 C-8.79514648 1.92413086 -8.79514648 1.92413086 -7.88476562 1.40039062 C-3.33984375 -1.11328125 -3.33984375 -1.11328125 0 0 Z " fill="#0C1213" transform="translate(66,75)"/>
<path d="M0 0 C0.33 0.66 0.66 1.32 1 2 C2.2065625 2.1546875 2.2065625 2.1546875 3.4375 2.3125 C4.283125 2.539375 5.12875 2.76625 6 3 C7.3125 5.5625 7.3125 5.5625 8 8 C6.68 9.32 5.36 10.64 4 12 C1.5625 10.9375 1.5625 10.9375 -1 9 C-1.9375 5.4375 -1.9375 5.4375 -2 2 C-1.34 1.34 -0.68 0.68 0 0 Z " fill="#28363D" transform="translate(75,35)"/>
<path d="M0 0 C3.125 0.375 3.125 0.375 6 1 C6.6875 3.3125 6.6875 3.3125 7 6 C5.875 7.8125 5.875 7.8125 4 9 C1.4375 9.3125 1.4375 9.3125 -1 9 C-1.66 8.34 -2.32 7.68 -3 7 C-2.67028521 3.70285207 -2.3773161 2.3773161 0 0 Z " fill="#101215" transform="translate(164,69)"/>
<path d="M0 0 C0.66 0.33 1.32 0.66 2 1 C3.70363822 1.22622081 5.41328701 1.40888473 7.125 1.5625 C8.03507813 1.64628906 8.94515625 1.73007813 9.8828125 1.81640625 C10.58148438 1.87699219 11.28015625 1.93757813 12 2 C12 3.65 12 5.3 12 7 C9.125 7.125 9.125 7.125 6 7 C5.34 6.34 4.68 5.68 4 5 C2.26043342 6.73956658 2.62809614 9.1936622 2.4375 11.5625 C2.35371094 12.57441406 2.26992187 13.58632812 2.18359375 14.62890625 C2.12300781 15.41136719 2.06242188 16.19382812 2 17 C1.67 17 1.34 17 1 17 C0.93941406 16.18015625 0.87882813 15.3603125 0.81640625 14.515625 C0.73261719 13.43796875 0.64882812 12.3603125 0.5625 11.25 C0.48128906 10.18265625 0.40007812 9.1153125 0.31640625 8.015625 C0.08385541 5.09107621 0.08385541 5.09107621 -0.59765625 2.671875 C-0.73042969 2.12015625 -0.86320313 1.5684375 -1 1 C-0.67 0.67 -0.34 0.34 0 0 Z " fill="#C6CED0" transform="translate(157,82)"/>
<path d="M0 0 C2.97 0.495 2.97 0.495 6 1 C6 1.66 6 2.32 6 3 C8.64 3 11.28 3 14 3 C14 3.66 14 4.32 14 5 C15.98 4.67 17.96 4.34 20 4 C20.33 5.98 20.66 7.96 21 10 C21.99 10.33 22.98 10.66 24 11 C22.68 11.33 21.36 11.66 20 12 C19.34 11.01 18.68 10.02 18 9 C12.84692414 5.38316976 8.20814105 4.26344089 2 5 C-0.009245 6.33358994 -0.009245 6.33358994 -1 8 C-0.67 5.36 -0.34 2.72 0 0 Z " fill="#F7EFAD" transform="translate(78,65)"/>
<path d="M0 0 C0.60328125 0.1959375 1.2065625 0.391875 1.828125 0.59375 C1.5733736 1.90946603 1.29878359 3.22135376 1.015625 4.53125 C0.78939453 5.62759766 0.78939453 5.62759766 0.55859375 6.74609375 C0.19701172 7.66068359 0.19701172 7.66068359 -0.171875 8.59375 C-1.161875 8.92375 -2.151875 9.25375 -3.171875 9.59375 C-3.831875 9.26375 -4.491875 8.93375 -5.171875 8.59375 C-5.171875 9.25375 -5.171875 9.91375 -5.171875 10.59375 C-5.831875 10.59375 -6.491875 10.59375 -7.171875 10.59375 C-7.484375 7.34375 -7.484375 7.34375 -7.171875 3.59375 C-3.37015086 -0.63038793 -3.37015086 -0.63038793 0 0 Z " fill="#E9F0D4" transform="translate(75.171875,74.40625)"/>
<path d="M0 0 C1.134375 0.32742187 2.26875 0.65484375 3.4375 0.9921875 C8.01221379 2.13586595 12.30763987 2.23072042 17 2.125 C17.77472656 2.11597656 18.54945312 2.10695313 19.34765625 2.09765625 C21.23190843 2.07439388 23.11599832 2.0385364 25 2 C22.10987825 4.89012175 19.00925595 4.49844329 15.125 4.6875 C14.04412109 4.75807617 14.04412109 4.75807617 12.94140625 4.83007812 C10.049372 4.99252204 7.45517878 5.1156725 4.6328125 4.3984375 C3.82457031 4.20121094 3.82457031 4.20121094 3 4 C0.72855926 5.85432087 0.72855926 5.85432087 -1 8 C-1.66 7.01 -2.32 6.02 -3 5 C-2.01 3.35 -1.02 1.7 0 0 Z " fill="#302A09" transform="translate(70,83)"/>
<path d="M0 0 C-2.55695957 2.04556766 -5.10115436 4.0735668 -7.75 6 C-10.07452502 8.06624446 -10.67524624 8.96896493 -11 12 C-10.01 12.33 -9.02 12.66 -8 13 C-10.31 13 -12.62 13 -15 13 C-14.49890042 8.61537866 -13.01704885 6.1999003 -10 3 C-9.34 3 -8.68 3 -8 3 C-8 2.34 -8 1.68 -8 1 C-4.93251126 -0.86240388 -3.40254489 -1.2151946 0 0 Z " fill="#F8C81C" transform="translate(136,38)"/>
<path d="M0 0 C0.99773438 0.97066406 0.99773438 0.97066406 2.015625 1.9609375 C5.62748358 4.4287257 8.52216273 4.59241551 12.75 4.625 C15.19079482 4.670966 17.56321439 4.79198172 20 5 C20.33 5.66 20.66 6.32 21 7 C19.78763672 7.19916016 19.78763672 7.19916016 18.55078125 7.40234375 C17.48214844 7.57894531 16.41351563 7.75554687 15.3125 7.9375 C14.25675781 8.11152344 13.20101562 8.28554687 12.11328125 8.46484375 C9.39750396 8.93167121 6.69875765 9.44422616 4 10 C4.33 9.01 4.66 8.02 5 7 C4.360625 6.773125 3.72125 6.54625 3.0625 6.3125 C1 5 1 5 0.25 2.375 C0.1675 1.59125 0.085 0.8075 0 0 Z " fill="#E2E4D8" transform="translate(20,67)"/>
<path d="M0 0 C2.63886669 3.18483911 5.14494105 6.2898821 7 10 C6.67 10.99 6.34 11.98 6 13 C4.68 13 3.36 13 2 13 C2 12.34 2 11.68 2 11 C1.01 11 0.02 11 -1 11 C-1.02688151 9.35425434 -1.04634123 7.70838587 -1.0625 6.0625 C-1.07410156 5.14597656 -1.08570313 4.22945312 -1.09765625 3.28515625 C-1 1 -1 1 0 0 Z " fill="#F2CC4B" transform="translate(43,54)"/>
<path d="M0 0 C0 2.25 0 2.25 -1 5 C-3.48947194 6.76178014 -6.0894 8.08336933 -9 9 C-9.66 8.67 -10.32 8.34 -11 8 C-8.19675717 0.99189291 -7.5244438 -0.16357487 0 0 Z " fill="#0C1216" transform="translate(132,53)"/>
<path d="M0 0 C2 1 2 1 3.375 3.5 C4.26656855 8.49278386 2.34043637 11.6479489 0 16 C-2 14 -2 14 -2.265625 11.50390625 C-2.26046875 10.53324219 -2.2553125 9.56257813 -2.25 8.5625 C-2.25515625 7.59441406 -2.2603125 6.62632813 -2.265625 5.62890625 C-2 3 -2 3 0 0 Z " fill="#10323F" transform="translate(72,39)"/>
<path d="M0 0 C3.465 1.98 3.465 1.98 7 4 C7 4.99 7 5.98 7 7 C5 9 5 9 2.5625 9.3125 C-0.39279457 8.95209822 -1.18887927 8.28773145 -3 6 C-2.34 6 -1.68 6 -1 6 C-0.67 4.02 -0.34 2.04 0 0 Z " fill="#10272D" transform="translate(41,77)"/>
<path d="M0 0 C2.5 0.125 2.5 0.125 5 1 C6.3125 3.0625 6.3125 3.0625 7 5 C5.8125 6.5625 5.8125 6.5625 4 8 C1.3125 7.6875 1.3125 7.6875 -1 7 C-1.625 4.625 -1.625 4.625 -2 2 C-1.34 1.34 -0.68 0.68 0 0 Z " fill="#1E130B" transform="translate(8,71)"/>
<path d="M0 0 C1.65 0.33 3.3 0.66 5 1 C5.33 2.65 5.66 4.3 6 6 C2.25 9 2.25 9 0 9 C0 8.34 0 7.68 0 7 C-0.66 7 -1.32 7 -2 7 C-1.34 4.69 -0.68 2.38 0 0 Z " fill="#0A141B" transform="translate(100,20)"/>
<path d="M0 0 C0 1.65792487 -0.01695364 3.31709594 -0.10546875 4.97265625 C-0.18428257 6.98053218 -0.09557846 8.99285224 0 11 C0.99 11.66 1.98 12.32 3 13 C3 13.99 3 14.98 3 16 C6.63 16 10.26 16 14 16 C11.62959692 18.37040308 10.93697247 18.34465793 7.6875 18.4375 C4.24044836 18.32630479 3.01070421 18.00633514 -0.0625 16.1875 C-2.83791986 11.62148668 -2.80029506 7.23140246 -2 2 C-1.34 1.34 -0.68 0.68 0 0 Z " fill="#EFE6A0" transform="translate(24,48)"/>
<path d="M0 0 C5.00028314 1.34153938 9.19067503 3.48370003 13 7 C13 7.66 13 8.32 13 9 C11.02 9.33 9.04 9.66 7 10 C6.67 8.68 6.34 7.36 6 6 C5.01 6 4.02 6 3 6 C0 2.66666667 0 2.66666667 0 0 Z " fill="#0B1026" transform="translate(55,58)"/>
<path d="M0 0 C1.98 0 3.96 0 6 0 C6.625 1.8125 6.625 1.8125 7 4 C6.01 5.485 6.01 5.485 5 7 C1.875 7.1875 1.875 7.1875 -1 7 C-0.67 4.69 -0.34 2.38 0 0 Z " fill="#070E13" transform="translate(127,87)"/>
<path d="M0 0 C0.33 0.66 0.66 1.32 1 2 C0.34 2 -0.32 2 -1 2 C-1 3.32 -1 4.64 -1 6 C-4.3 6.33 -7.6 6.66 -11 7 C-10.67 6.34 -10.34 5.68 -10 5 C-9.67 3.68 -9.34 2.36 -9 1 C-4.545 0.505 -4.545 0.505 0 0 Z " fill="#DCE3E4" transform="translate(170,77)"/>
<path d="M0 0 C1.9476224 3.32053655 2.42553804 6.18280043 2.75 10 C2.89695312 11.546875 2.89695312 11.546875 3.046875 13.125 C2.99896675 16.06337289 2.5381113 17.53902192 1 20 C0.34 20 -0.32 20 -1 20 C-1 20.66 -1 21.32 -1 22 C-1.66 21.67 -2.32 21.34 -3 21 C-2.690625 20.13375 -2.38125 19.2675 -2.0625 18.375 C-0.32696438 12.42986735 -0.32405969 6.14860618 0 0 Z " fill="#F1E4C7" transform="translate(111,93)"/>
<path d="M0 0 C3.63 0 7.26 0 11 0 C11 0.33 11 0.66 11 1 C9.35 1.33 7.7 1.66 6 2 C5.67 3.65 5.34 5.3 5 7 C3.35 7 1.7 7 0 7 C-1 4 -1 4 0 0 Z " fill="#FED715" transform="translate(67,106)"/>
<path d="M0 0 C0.66 0.33 1.32 0.66 2 1 C0.68 1.33 -0.64 1.66 -2 2 C-2 2.66 -2 3.32 -2 4 C-2.78375 4.763125 -3.5675 5.52625 -4.375 6.3125 C-6.90052521 8.89815676 -7.93407386 10.60841682 -9 14 C-4.545 13.505 -4.545 13.505 0 13 C0.33 13.99 0.66 14.98 1 16 C-2.63 15.67 -6.26 15.34 -10 15 C-10.34934248 12.06552319 -10.51495218 9.85632498 -8.95703125 7.265625 C-7.625 5.625 -7.625 5.625 -5 3 C-4.34 3 -3.68 3 -3 3 C-3 2.34 -3 1.68 -3 1 C-2.01 0.67 -1.02 0.34 0 0 Z " fill="#E9DC96" transform="translate(130,37)"/>
<path d="M0 0 C0.721875 0.639375 1.44375 1.27875 2.1875 1.9375 C4.98191184 3.98673535 6.61663274 4.61332946 10 5 C10 5.33 10 5.66 10 6 C8.35 6 6.7 6 5 6 C4.67 7.32 4.34 8.64 4 10 C2.02 8.68 0.04 7.36 -2 6 C-1.34 5.67 -0.68 5.34 0 5 C0 3.35 0 1.7 0 0 Z " fill="#10212A" transform="translate(122,81)"/>
<path d="M0 0 C2.91517292 1.07401108 4.77810176 1.77810176 7 4 C7 4.99 7 5.98 7 7 C10.465 6.505 10.465 6.505 14 6 C14 6.66 14 7.32 14 8 C12.02 8 10.04 8 8 8 C7.34 9.32 6.68 10.64 6 12 C5.7525 11.05125 5.505 10.1025 5.25 9.125 C4.3142923 5.91306809 4.3142923 5.91306809 1.875 4.625 C1.25625 4.41875 0.6375 4.2125 0 4 C0 2.68 0 1.36 0 0 Z " fill="#C4CAD0" transform="translate(119,87)"/>
<path d="M0 0 C0 1.65 0 3.3 0 5 C1.32 5.66 2.64 6.32 4 7 C2.3745692 6.85904936 0.74965949 6.71207913 -0.875 6.5625 C-1.77992187 6.48128906 -2.68484375 6.40007812 -3.6171875 6.31640625 C-6 6 -6 6 -8 5 C-8 4.34 -8 3.68 -8 3 C-2.25 0 -2.25 0 0 0 Z " fill="#E5EBE9" transform="translate(114,68)"/>
<path d="M0 0 C1.40378906 -0.02126953 1.40378906 -0.02126953 2.8359375 -0.04296875 C5.78618154 0.20081892 7.94864112 0.95637492 10.625 2.1875 C10.295 2.8475 9.965 3.5075 9.625 4.1875 C8.6040625 3.6925 8.6040625 3.6925 7.5625 3.1875 C4.00945726 1.97795354 1.36090914 1.85393668 -2.375 2.1875 C-5.05176547 3.55999963 -5.05176547 3.55999963 -7.375 5.1875 C-9.6875 5.875 -9.6875 5.875 -11.375 6.1875 C-8.38562411 0.63580192 -6.14592177 0.04209535 0 0 Z " fill="#FBDB81" transform="translate(139.375,43.8125)"/>
<path d="M0 0 C0 0.33 0 0.66 0 1 C-1.98 1 -3.96 1 -6 1 C-6 1.66 -6 2.32 -6 3 C-9.04681061 5.03120707 -9.60118324 5.24659875 -13.01171875 5.1953125 C-14.14770508 5.18564453 -14.14770508 5.18564453 -15.30664062 5.17578125 C-16.09232422 5.15902344 -16.87800781 5.14226562 -17.6875 5.125 C-18.48478516 5.11597656 -19.28207031 5.10695313 -20.10351562 5.09765625 C-22.069139 5.07411585 -24.03460775 5.03824547 -26 5 C-26 4.67 -26 4.34 -26 4 C-25.04738281 3.93941406 -24.09476563 3.87882812 -23.11328125 3.81640625 C-21.23189453 3.69072266 -21.23189453 3.69072266 -19.3125 3.5625 C-18.07113281 3.48128906 -16.82976563 3.40007812 -15.55078125 3.31640625 C-12.61819663 3.05508683 -9.86558383 2.65201621 -7 2 C-7 1.34 -7 0.68 -7 0 C-4.3333581 -1.33332095 -2.83319697 -0.67102033 0 0 Z " fill="#F1DE9E" transform="translate(51,67)"/>
<path d="M0 0 C0.33 0 0.66 0 1 0 C1.04898437 0.66386719 1.09796875 1.32773437 1.1484375 2.01171875 C1.55747764 8.78908352 1.55747764 8.78908352 4 15 C6.04105639 15.88693303 6.04105639 15.88693303 8 16 C7.01 17.32 6.02 18.64 5 20 C0.67203952 15.34744248 -0.34751692 12.4775992 -0.3125 6.0625 C-0.23271646 4.04055721 -0.13661724 2.01889915 0 0 Z " fill="#F2CD31" transform="translate(16,48)"/>
<path d="M0 0 C2.475 0.99 2.475 0.99 5 2 C5 2.66 5 3.32 5 4 C11.08408472 4.19814261 11.08408472 4.19814261 17 3 C16.67 4.65 16.34 6.3 16 8 C14.68 8.33 13.36 8.66 12 9 C11.67 8.01 11.34 7.02 11 6 C8.69 5.67 6.38 5.34 4 5 C4 4.34 4 3.68 4 3 C2.68 2.67 1.36 2.34 0 2 C0 1.34 0 0.68 0 0 Z " fill="#F8B719" transform="translate(131,63)"/>
<path d="M0 0 C6.96435152 -0.64484736 12.23946963 0.9312239 18 5 C19.2890625 7.171875 19.2890625 7.171875 20 9 C15.25 7.125 15.25 7.125 13 6 C13 5.34 13 4.68 13 4 C10.09375703 3.26010787 7.17849225 2.58349094 4.25 1.9375 C3.45078125 1.76089844 2.6515625 1.58429687 1.828125 1.40234375 C1.22484375 1.26957031 0.6215625 1.13679688 0 1 C0 0.67 0 0.34 0 0 Z " fill="#ECBE47" transform="translate(138,36)"/>
<path d="M0 0 C6.92645744 -0.44368767 11.4236787 -0.62426644 17 4 C17.763125 4.309375 18.52625 4.61875 19.3125 4.9375 C21 6 21 6 21.75 8.625 C21.87375 9.800625 21.87375 9.800625 22 11 C21.55269531 10.60167969 21.10539062 10.20335937 20.64453125 9.79296875 C13.7666199 3.76563066 9.20122381 1.51812717 0 1 C0 0.67 0 0.34 0 0 Z " fill="#F0E5AF" transform="translate(32,36)"/>
<path d="M0 0 C0.99 0 1.98 0 3 0 C2.67 0.99 2.34 1.98 2 3 C1.01 3 0.02 3 -1 3 C-1 3.66 -1 4.32 -1 5 C-2.41623216 5.05447047 -3.83308191 5.09300508 -5.25 5.125 C-6.03890625 5.14820312 -6.8278125 5.17140625 -7.640625 5.1953125 C-10.20731941 4.9828378 -11.7916067 4.28654105 -14 3 C-10.88957846 1.44478923 -7.73635289 2.03574299 -4.3125 2.16015625 C-1.80290553 2.24061362 -1.80290553 2.24061362 0 0 Z " fill="#E2DDBB" transform="translate(146,61)"/>
<path d="M0 0 C6.52307692 0.61538462 6.52307692 0.61538462 8.9375 2.5625 C9.288125 3.036875 9.63875 3.51125 10 4 C8.35 3.67 6.7 3.34 5 3 C5.66 4.65 6.32 6.3 7 8 C3.64379729 6.61122646 1.92701272 5.08322035 0 2 C0 1.34 0 0.68 0 0 Z " fill="#3A180C" transform="translate(44,54)"/>
<path d="M0 0 C0.66 0.33 1.32 0.66 2 1 C2 4.3 2 7.6 2 11 C-0.475 10.01 -0.475 10.01 -3 9 C-3 7.68 -3 6.36 -3 5 C-2.34 4.67 -1.68 4.34 -1 4 C-0.34786708 1.97536745 -0.34786708 1.97536745 0 0 Z " fill="#EFCF38" transform="translate(52,46)"/>
<path d="M0 0 C0.99 0.495 0.99 0.495 2 1 C2.6328125 3.72265625 2.6328125 3.72265625 3.125 7.0625 C3.29257812 8.16722656 3.46015625 9.27195312 3.6328125 10.41015625 C3.75398438 11.26480469 3.87515625 12.11945312 4 13 C2.68 12.67 1.36 12.34 0 12 C0 8.04 0 4.08 0 0 Z " fill="#EAE7D1" transform="translate(54,45)"/>
<path d="M0 0 C1.4807848 2.9615696 1.35314037 5.83506295 1.5625 9.125 C1.64628906 10.40632813 1.73007813 11.68765625 1.81640625 13.0078125 C1.90728516 14.48894531 1.90728516 14.48894531 2 16 C1.01 15.67 0.02 15.34 -1 15 C-1.22134176 12.87631556 -1.42670007 10.75095976 -1.625 8.625 C-1.74101563 7.44164063 -1.85703125 6.25828125 -1.9765625 5.0390625 C-1.98429687 4.03617187 -1.99203125 3.03328125 -2 2 C-1.34 1.34 -0.68 0.68 0 0 Z " fill="#F1E6B8" transform="translate(64,101)"/>
<path d="M0 0 C8.415 1.485 8.415 1.485 17 3 C17 3.33 17 3.66 17 4 C11.06 4 5.12 4 -1 4 C-0.67 2.68 -0.34 1.36 0 0 Z " fill="#E2BF5F" transform="translate(65,101)"/>
<path d="M0 0 C0.33 1.32 0.66 2.64 1 4 C0.01 4.495 0.01 4.495 -1 5 C-0.979375 6.27875 -0.95875 7.5575 -0.9375 8.875 C-0.875 12.75 -0.875 12.75 -2 15 C-3.32 15 -4.64 15 -6 15 C-5.67 14.01 -5.34 13.02 -5 12 C-4.34 12 -3.68 12 -3 12 C-3.061875 10.7625 -3.12375 9.525 -3.1875 8.25 C-3.20362826 5.21788698 -3.10651023 4.17751704 -1.5 1.5 C-1.005 1.005 -0.51 0.51 0 0 Z " fill="#F1EEBD" transform="translate(44,50)"/>
<path d="M0 0 C0.33 0.66 0.66 1.32 1 2 C1.66 2 2.32 2 3 2 C3.33 2.66 3.66 3.32 4 4 C5.64363134 4.72159424 7.31050386 5.39351421 9 6 C9 6.66 9 7.32 9 8 C2.25 7.125 2.25 7.125 0 6 C0 4.02 0 2.04 0 0 Z " fill="#313B31" transform="translate(64,95)"/>
<path d="M0 0 C-0.99730136 2.4932534 -1.65074531 3.77467439 -3.9375 5.25 C-6 6 -6 6 -9 6 C-6.97377245 1.32409027 -5.29661848 0 0 0 Z " fill="#0D1214" transform="translate(135,77)"/>
<path d="M0 0 C0.66 0.99 1.32 1.98 2 3 C-7.22551253 10.85193622 -7.22551253 10.85193622 -13 11 C-12 9 -12 9 -8.75 7.75 C-4.54269705 6.07575367 -2.64780022 3.61063666 0 0 Z " fill="#F2DBB0" transform="translate(155,64)"/>
<path d="M0 0 C-3.21067213 2.75200468 -6.01077965 4.59838204 -10 6 C-10.99 6.495 -10.99 6.495 -12 7 C-11.34 5.68 -10.68 4.36 -10 3 C-9.34 3 -8.68 3 -8 3 C-8 2.34 -8 1.68 -8 1 C-4.93251126 -0.86240388 -3.40254489 -1.2151946 0 0 Z " fill="#F7CC3B" transform="translate(136,38)"/>
<path d="M0 0 C2.3125 -0.25 2.3125 -0.25 5 0 C6.875 1.8125 6.875 1.8125 8 4 C7.67 4.99 7.34 5.98 7 7 C6.34 7 5.68 7 5 7 C4.67 5.68 4.34 4.36 4 3 C3.01 3 2.02 3 1 3 C0.67 2.01 0.34 1.02 0 0 Z " fill="#EDE9E4" transform="translate(99,76)"/>
<path d="M0 0 C1.65 1.32 3.3 2.64 5 4 C1.98675805 5.50662097 -0.68286377 5.17770373 -4 5 C-4.66 4.34 -5.32 3.68 -6 3 C-4.02 2.67 -2.04 2.34 0 2 C0 1.34 0 0.68 0 0 Z " fill="#2B3849" transform="translate(68,65)"/>
<path d="M0 0 C2.33333333 2.33333333 4.66666667 4.66666667 7 7 C5.02 7.99 5.02 7.99 3 9 C1.5 7.875 1.5 7.875 0 6 C-0.1875 2.8125 -0.1875 2.8125 0 0 Z " fill="#161D27" transform="translate(74,20)"/>
<path d="M0 0 C3.51705958 0.65271556 6.89325077 1.51393024 10.3125 2.5625 C11.19550781 2.83191406 12.07851562 3.10132812 12.98828125 3.37890625 C13.65214844 3.58386719 14.31601563 3.78882812 15 4 C15 4.33 15 4.66 15 5 C9.1977825 5.36263859 5.36000789 4.25684543 0 2 C0 1.34 0 0.68 0 0 Z " fill="#261302" transform="translate(67,117)"/>
<path d="M0 0 C0.66 0 1.32 0 2 0 C1.75 1.875 1.75 1.875 1 4 C-1.95545121 6.11103658 -4.43855901 6.19785783 -8 6 C-8 5.34 -8 4.68 -8 4 C-6.865625 3.525625 -5.73125 3.05125 -4.5625 2.5625 C-1.24259834 1.36377917 -1.24259834 1.36377917 0 0 Z " fill="#150702" transform="translate(108,96)"/>
<path d="M0 0 C1.98 0.495 1.98 0.495 4 1 C3.01 3.97 2.02 6.94 1 10 C0.67 10 0.34 10 0 10 C-0.19412181 8.52168779 -0.38012131 7.04230684 -0.5625 5.5625 C-0.66691406 4.73878906 -0.77132812 3.91507812 -0.87890625 3.06640625 C-0.91886719 2.38449219 -0.95882812 1.70257813 -1 1 C-0.67 0.67 -0.34 0.34 0 0 Z " fill="#1A272E" transform="translate(119,91)"/>
<path d="M0 0 C-0.66 2.31 -1.32 4.62 -2 7 C-4.31 6.67 -6.62 6.34 -9 6 C-3.2 0 -3.2 0 0 0 Z " fill="#A09E7E" transform="translate(50,88)"/>
<path d="M0 0 C1.65 0 3.3 0 5 0 C5 1.65 5 3.3 5 5 C3.35 4.67 1.7 4.34 0 4 C0 2.68 0 1.36 0 0 Z " fill="#273136" transform="translate(164,84)"/>
<path d="M0 0 C5.28 0 10.56 0 16 0 C16 0.33 16 0.66 16 1 C14.02 1 12.04 1 10 1 C10 1.66 10 2.32 10 3 C5.82412255 4.39195915 3.86525224 2.82323219 0 1 C0 0.67 0 0.34 0 0 Z " fill="#B2C8D2" transform="translate(126,84)"/>
<path d="M0 0 C2 3.75 2 3.75 2 6 C2.99 6.33 3.98 6.66 5 7 C3.68 7.33 2.36 7.66 1 8 C0.34 7.01 -0.32 6.02 -1 5 C-3.05003955 3.80767387 -3.05003955 3.80767387 -5 3 C-5 2.34 -5 1.68 -5 1 C-3.35 0.67 -1.7 0.34 0 0 Z " fill="#D7D1B4" transform="translate(97,69)"/>
<path d="M0 0 C2.31 0.33 4.62 0.66 7 1 C7.33 2.65 7.66 4.3 8 6 C7.34 6 6.68 6 6 6 C6 5.34 6 4.68 6 4 C3.03 3.505 3.03 3.505 0 3 C0 2.01 0 1.02 0 0 Z " fill="#DEDCC8" transform="translate(78,62)"/>
<path d="M0 0 C0 1.65 0 3.3 0 5 C-1.65 5.66 -3.3 6.32 -5 7 C-5.33 5.68 -5.66 4.36 -6 3 C-2.25 0 -2.25 0 0 0 Z " fill="#E9F0F3" transform="translate(100,58)"/>
<path d="M0 0 C0.66 0.33 1.32 0.66 2 1 C2.1875 3.375 2.1875 3.375 2 6 C1.01 6.66 0.02 7.32 -1 8 C-1.66 6.68 -2.32 5.36 -3 4 C-2.01 2.68 -1.02 1.36 0 0 Z " fill="#EAEAE8" transform="translate(77,38)"/>
<path d="M0 0 C2.125 0.375 2.125 0.375 4 1 C2.02 1.99 2.02 1.99 0 3 C0 3.66 0 4.32 0 5 C0.99 5.66 1.98 6.32 3 7 C1.02 7.99 1.02 7.99 -1 9 C-1.66 8.34 -2.32 7.68 -3 7 C-2.67028521 3.70285207 -2.3773161 2.3773161 0 0 Z " fill="#161D29" transform="translate(70,19)"/>
<path d="M0 0 C0.66 1.32 1.32 2.64 2 4 C0.625 5.5 0.625 5.5 -1 7 C-1.66 7 -2.32 7 -3 7 C-3 7.66 -3 8.32 -3 9 C-5.475 8.01 -5.475 8.01 -8 7 C-8 6.67 -8 6.34 -8 6 C-7.05125 5.7525 -6.1025 5.505 -5.125 5.25 C-1.91306809 4.3142923 -1.91306809 4.3142923 -0.625 1.875 C-0.41875 1.25625 -0.2125 0.6375 0 0 Z " fill="#ECE8DA" transform="translate(15,73)"/>
<path d="M0 0 C3.3 0.33 6.6 0.66 10 1 C6 4 6 4 2 4 C1.34 2.68 0.68 1.36 0 0 Z " fill="#F0DD94" transform="translate(128,73)"/>
<path d="M0 0 C-0.2547514 1.31571603 -0.52934141 2.62760376 -0.8125 3.9375 C-0.96332031 4.66839844 -1.11414063 5.39929687 -1.26953125 6.15234375 C-1.51058594 6.76207031 -1.75164062 7.37179688 -2 8 C-2.99 8.33 -3.98 8.66 -5 9 C-5 8.01 -5 7.02 -5 6 C-5.66 5.01 -6.32 4.02 -7 3 C-2.25 0 -2.25 0 0 0 Z " fill="#10232E" transform="translate(124,55)"/>
<path d="M0 0 C1.32 0 2.64 0 4 0 C3.67 1.65 3.34 3.3 3 5 C1.02 5.66 -0.96 6.32 -3 7 C-3 6.34 -3 5.68 -3 5 C-2.01 5 -1.02 5 0 5 C0 3.35 0 1.7 0 0 Z " fill="#130D03" transform="translate(128,53)"/>
<path d="M0 0 C0.66 0 1.32 0 2 0 C2.75 1.75 2.75 1.75 3 4 C1.0625 6.25 1.0625 6.25 -1 8 C-1.66 7.01 -2.32 6.02 -3 5 C-1.625 2.5 -1.625 2.5 0 0 Z " fill="#1C2D2B" transform="translate(70,83)"/>
<path d="M0 0 C3.465 1.98 3.465 1.98 7 4 C7 4.99 7 5.98 7 7 C5.02 7.99 5.02 7.99 3 9 C3.66 7.68 4.32 6.36 5 5 C3.35 4.67 1.7 4.34 0 4 C0 2.68 0 1.36 0 0 Z " fill="#344747" transform="translate(41,77)"/>
<path d="M0 0 C0.66 0.33 1.32 0.66 2 1 C0.03715497 3.65561386 -1.14020111 4.03313844 -4.4375 4.8125 C-8 5 -8 5 -12 3 C-9.03 3 -6.06 3 -3 3 C-3 2.34 -3 1.68 -3 1 C-2.01 0.67 -1.02 0.34 0 0 Z " fill="#F1D66F" transform="translate(148,63)"/>
<path d="M0 0 C1.59330455 3.1866091 -0.00158523 5.71110429 -1 9 C-1 9.66 -1 10.32 -1 11 C-2.32 10.67 -3.64 10.34 -5 10 C-4.35699811 8.51960029 -3.71051501 7.04071218 -3.0625 5.5625 C-2.70285156 4.73878906 -2.34320313 3.91507812 -1.97265625 3.06640625 C-1 1 -1 1 0 0 Z " fill="#FAD517" transform="translate(79,73)"/>
<path d="M0 0 C2.5 1.25 2.5 1.25 5 3 C5 4.32 5 5.64 5 7 C3.35 7 1.7 7 0 7 C0 4.66666667 0 2.33333333 0 0 Z " fill="#E2E1DD" transform="translate(106,78)"/>
<path d="M0 0 C0.33 0.66 0.66 1.32 1 2 C0.06421005 4.35981813 -0.93347808 6.69631264 -2 9 C-2.66 8.67 -3.32 8.34 -4 8 C-3.67 5.69 -3.34 3.38 -3 1 C-2.01 0.67 -1.02 0.34 0 0 Z " fill="#F9EC77" transform="translate(76,75)"/>
<path d="M0 0 C1.231394 2.46278801 1.07159196 4.2795055 1 7 C-0.32 7.33 -1.64 7.66 -3 8 C-4 6 -4 6 -4 3 C-2 1.3125 -2 1.3125 0 0 Z " fill="#141F26" transform="translate(68,71)"/>
<path d="M0 0 C0.99 0.33 1.98 0.66 3 1 C2.67 1.99 2.34 2.98 2 4 C2.66 4.33 3.32 4.66 4 5 C2.35 5.66 0.7 6.32 -1 7 C-1.625 4.625 -1.625 4.625 -2 2 C-1.34 1.34 -0.68 0.68 0 0 Z " fill="#0F222B" transform="translate(108,64)"/>
<path d="M0 0 C0.99 0 1.98 0 3 0 C1.73058503 3.91402949 0.48832306 5.79072873 -3 8 C-3 6.35 -3 4.7 -3 3 C-2.01 3 -1.02 3 0 3 C0 2.01 0 1.02 0 0 Z " fill="#F09D17" transform="translate(153,62)"/>
<path d="M0 0 C2.475 0.495 2.475 0.495 5 1 C5.33 2.32 5.66 3.64 6 5 C4.68 5.33 3.36 5.66 2 6 C0 3 0 3 0 0 Z " fill="#12133A" transform="translate(49,57)"/>
<path d="M0 0 C1.67542976 0.28604898 3.34385343 0.61781233 5 1 C3.37660195 2.70884005 1.70680947 4.37446717 0 6 C-0.66 6 -1.32 6 -2 6 C-1.125 1.125 -1.125 1.125 0 0 Z " fill="#1C2117" transform="translate(43,87)"/>
<path d="M0 0 C-1.24176695 0.70226141 -2.49385599 1.38629109 -3.75 2.0625 C-4.79414063 2.63677734 -4.79414063 2.63677734 -5.859375 3.22265625 C-8.36140628 4.1312406 -9.5332355 3.88336837 -12 3 C-9.84267191 0.84267191 -8.88177557 0.51705175 -6 -0.1875 C-5.29875 -0.36667969 -4.5975 -0.54585938 -3.875 -0.73046875 C-2 -1 -2 -1 0 0 Z " fill="#E3A62C" transform="translate(150,71)"/>
<path d="M0 0 C0.680625 0.639375 1.36125 1.27875 2.0625 1.9375 C5.46408839 4.3258493 7.90433701 4.67877153 12 5 C12 5.33 12 5.66 12 6 C10.741875 6.020625 9.48375 6.04125 8.1875 6.0625 C7.47980469 6.07410156 6.77210937 6.08570312 6.04296875 6.09765625 C4 6 4 6 1 5 C0.67 3.35 0.34 1.7 0 0 Z " fill="#F7EDBF" transform="translate(20,67)"/>
<path d="M0 0 C3.45925163 1.2491742 6.14693203 2.67527795 9 5 C6.69 5 4.38 5 2 5 C2 4.01 2 3.02 2 2 C1.34 2 0.68 2 0 2 C0 1.34 0 0.68 0 0 Z " fill="#E5D1AD" transform="translate(53,64)"/>
<path d="M0 0 C0 0.99 0 1.98 0 3 C-1 4 -2 5 -3 6 C-4.19027984 8.59915538 -4.19027984 8.59915538 -5 11 C-5.6875 9.3125 -5.6875 9.3125 -6 7 C-4.35923508 3.55439366 -3.21487558 2.14325038 0 0 Z " fill="#E5EAE7" transform="translate(21,78)"/>
<path d="M0 0 C2.475 0.99 2.475 0.99 5 2 C4.34 2.66 3.68 3.32 3 4 C2.35232207 6.57061311 2.35232207 6.57061311 2 9 C0.14223235 5.86501708 -0.20140476 3.62528568 0 0 Z " fill="#141E29" transform="translate(97,64)"/>
<path d="M0 0 C0.66 0.66 1.32 1.32 2 2 C4.57061311 2.64767793 4.57061311 2.64767793 7 3 C5.875 4.5 5.875 4.5 4 6 C0.8125 6.1875 0.8125 6.1875 -2 6 C-1.34 4.02 -0.68 2.04 0 0 Z " fill="#1D2C33" transform="translate(82,30)"/>
<path d="M0 0 C2.31 0.33 4.62 0.66 7 1 C6.67 1.99 6.34 2.98 6 4 C4.35 3.67 2.7 3.34 1 3 C0.67 2.01 0.34 1.02 0 0 Z " fill="#EAEEED" transform="translate(161,78)"/>
<path d="M0 0 C-1.175625 0.86625 -1.175625 0.86625 -2.375 1.75 C-4.80047244 3.82897637 -5.85694417 5.09040333 -7 8 C-8 6 -8 6 -7.3125 3.5 C-5.58894334 0.21703494 -3.62739863 -1.81369932 0 0 Z " fill="#F2EEAF" transform="translate(24,40)"/>
<path d="M0 0 C0.66 0.33 1.32 0.66 2 1 C0.25 3 0.25 3 -2 5 C-3.32 5 -4.64 5 -6 5 C-6 4.34 -6 3.68 -6 3 C-4.03533587 1.93224776 -2.03144641 0.93446535 0 0 Z " fill="#E2E7D9" transform="translate(56,84)"/>
<path d="M0 0 C1.98 0 3.96 0 6 0 C6 0.66 6 1.32 6 2 C4.1875 3.0625 4.1875 3.0625 2 4 C1.01 3.67 0.02 3.34 -1 3 C-0.67 2.01 -0.34 1.02 0 0 Z " fill="#EBF0E7" transform="translate(25,73)"/>
<path d="M0 0 C0 3 0 3 -2 6 C-3.32 5.67 -4.64 5.34 -6 5 C-6 4.34 -6 3.68 -6 3 C-4.02 2.01 -2.04 1.02 0 0 Z " fill="#D2DCDD" transform="translate(112,68)"/>
<path d="M0 0 C0 1.32 0 2.64 0 4 C-0.66 4 -1.32 4 -2 4 C-2 3.34 -2 2.68 -2 2 C-3.98 2.66 -5.96 3.32 -8 4 C-4.5 0 -4.5 0 0 0 Z " fill="#000E19" transform="translate(77,68)"/>
<path d="M0 0 C0 3.93169105 -1.39419615 5.16427228 -4 8 C-4.66 8 -5.32 8 -6 8 C-6 5 -6 5 -4.6875 3.61328125 C-3.125 2.40885417 -1.5625 1.20442708 0 0 Z " fill="#DCEEF1" transform="translate(75,33)"/>
<path d="M0 0 C0.99 0.66 1.98 1.32 3 2 C2.67 2.99 2.34 3.98 2 5 C-2.875 3.25 -2.875 3.25 -4 1 C-2.68 1.33 -1.36 1.66 0 2 C0 1.34 0 0.68 0 0 Z " fill="#1E1F2C" transform="translate(60,63)"/>
</svg>
